<?xml version="1.0" standalone="no"?>
<!DOCTYPE svg PUBLIC "-//W3C//DTD SVG 20010904//EN"
 "http://www.w3.org/TR/2001/REC-SVG-20010904/DTD/svg10.dtd">
<svg version="1.0" xmlns="http://www.w3.org/2000/svg"
 width="260.000000pt" height="260.000000pt" viewBox="0 0 260.000000 260.000000"
 preserveAspectRatio="xMidYMid meet">
<metadata>
Created by potrace 1.11, written by Peter Selinger 2001-2013
</metadata>
<g transform="translate(0.000000,260.000000) scale(0.100000,-0.100000)"
fill="#000000" stroke="none">
<path d="M1950 2242 c0 -6 5 -14 10 -17 19 -12 10 -22 -15 -17 -14 2 -23 7
-21 11 3 4 -4 8 -15 8 -16 2 -19 -2 -13 -19 5 -17 3 -20 -10 -15 -24 9 -20 -9
6 -27 12 -9 18 -16 12 -16 -6 0 -20 9 -32 21 -13 11 -28 19 -34 17 -7 -3 -1
-14 13 -27 l24 -23 -25 13 c-14 7 -29 12 -33 11 -4 -1 -18 3 -30 10 -19 10
-21 9 -9 -4 10 -13 10 -17 0 -20 -10 -4 -10 -8 1 -21 12 -15 11 -17 -3 -17
-10 0 -14 5 -11 10 3 6 4 10 0 10 -7 0 -40 -30 -100 -89 l-44 -44 3 35 c2 19
6 40 10 47 4 6 3 11 -3 11 -5 0 -13 -5 -17 -11 -5 -8 -9 -8 -14 1 -4 7 -13 9
-20 5 -9 -6 -9 -9 1 -16 12 -7 12 -9 0 -9 -9 0 -12 -8 -9 -25 5 -21 2 -25 -13
-20 -13 4 -19 1 -19 -9 0 -8 -5 -18 -12 -22 -8 -5 -9 -2 -5 9 3 10 2 17 -3 17
-6 0 -10 -6 -10 -14 0 -7 -9 -16 -19 -19 -15 -4 -20 0 -19 17 2 42 -2 56 -16
56 -8 0 -17 -7 -20 -16 -4 -11 -13 -14 -30 -10 -27 7 -46 -21 -21 -30 20 -8
19 -24 -2 -24 -15 0 -14 -2 3 -15 11 -9 14 -14 6 -15 -7 0 -18 -13 -23 -29 -6
-16 -19 -31 -30 -34 -12 -3 -19 -14 -19 -31 0 -18 -4 -24 -14 -20 -11 4 -14
-1 -12 -20 2 -14 0 -23 -5 -21 -4 3 -10 1 -14 -5 -3 -5 -2 -10 3 -10 5 0 4
-15 -2 -35 l-11 -35 -12 35 c-10 31 -9 43 9 93 12 31 32 71 45 89 22 30 22 33
6 42 -17 10 -17 10 0 11 10 0 16 4 12 9 -3 6 -20 8 -37 6 l-31 -4 22 21 c12
11 20 26 17 34 -3 7 2 18 11 23 9 5 18 16 19 26 2 13 -3 16 -19 11 -12 -3 -37
-6 -55 -6 -22 0 -31 -4 -26 -11 4 -8 -1 -9 -17 -4 -18 5 -20 4 -9 -4 13 -9 11
-13 -10 -28 -14 -10 -35 -28 -47 -41 -12 -13 -28 -22 -35 -19 -9 4 -8 6 3 6
17 1 45 51 29 51 -18 0 -90 -32 -90 -40 0 -4 -10 -11 -22 -14 -22 -7 -22 -7
-3 -16 20 -8 20 -9 -1 -9 -12 -1 -32 -9 -45 -20 -13 -10 -44 -27 -68 -38 -28
-13 -39 -23 -30 -26 8 -4 2 -4 -13 -1 -19 4 -29 1 -37 -13 -6 -10 -11 -13 -11
-8 0 6 -4 4 -9 -4 -5 -8 -23 -14 -41 -14 -20 0 -26 -3 -18 -9 10 -6 10 -8 1
-8 -7 0 -13 -5 -13 -12 0 -9 3 -9 12 0 7 7 21 12 33 12 15 -1 11 -5 -14 -15
-18 -8 -37 -12 -42 -9 -6 3 -17 0 -25 -7 -12 -10 -12 -14 -2 -20 10 -7 9 -9
-4 -9 -21 0 -24 20 -6 38 7 7 -6 3 -29 -8 -22 -10 -43 -26 -47 -35 -3 -9 -10
-13 -16 -10 -5 3 -10 1 -10 -4 0 -18 28 -13 39 7 6 9 11 13 11 7 0 -5 4 -3 10
5 5 8 12 11 15 8 11 -10 -4 -28 -31 -38 -35 -14 -29 -37 9 -31 17 3 5 -17 -13
-22 -11 -3 -20 -1 -20 4 0 14 -13 10 -40 -11 -23 -17 -23 -19 -4 -14 12 3 25
1 29 -5 3 -6 3 -11 -2 -10 -8 2 -34 -6 -68 -22 -16 -8 -14 -8 10 -4 l30 5 -39
-33 c-61 -51 -139 -128 -134 -133 3 -2 25 16 51 40 25 25 56 50 69 56 28 15
-66 -73 -105 -97 -30 -19 -37 -36 -10 -26 11 4 7 -4 -10 -20 -15 -15 -26 -31
-23 -35 2 -4 -4 -9 -15 -9 -16 -2 -19 2 -13 19 4 14 2 18 -5 14 -6 -4 -11 -14
-11 -22 0 -8 -9 -23 -20 -34 -11 -11 -20 -29 -20 -39 0 -11 -5 -23 -11 -27 -6
-3 -9 -15 -6 -25 3 -12 -6 -30 -24 -50 -16 -17 -26 -35 -23 -40 3 -5 -2 -9
-10 -9 -9 0 -17 -6 -17 -12 -1 -7 -2 -18 -3 -25 0 -6 -12 -22 -24 -34 -16 -14
-22 -29 -19 -45 2 -13 -2 -32 -9 -41 -7 -10 -14 -26 -14 -36 0 -17 1 -17 16
-3 21 22 27 20 14 -4 -6 -11 -8 -20 -5 -20 3 0 -4 -10 -16 -23 -24 -25 -42
-64 -41 -89 0 -10 -3 -20 -8 -23 -5 -3 -5 -18 0 -34 4 -16 6 -32 3 -35 -11
-10 18 -70 58 -122 66 -86 139 -123 348 -174 89 -21 197 -27 186 -10 -4 6 -10
8 -14 5 -13 -7 -70 24 -84 46 -15 23 -27 25 -27 2 0 -24 -11 -9 -14 20 -2 18
1 24 11 20 8 -3 13 -2 11 3 -1 5 8 22 22 37 22 25 30 28 80 26 30 -2 60 -7 67
-12 7 -5 18 -5 25 -1 17 11 61 5 71 -10 5 -8 9 -8 15 0 7 11 45 23 94 29 15 2
40 11 57 19 16 9 44 16 61 16 20 0 30 5 30 16 0 9 5 12 12 8 8 -5 9 -2 5 9 -3
9 -2 19 3 22 12 7 -8 51 -23 53 -7 0 -25 4 -42 7 -16 4 -35 8 -42 8 -7 0 -10
4 -7 9 4 5 12 7 20 4 8 -3 14 -1 14 4 0 6 5 10 11 10 6 0 17 7 26 16 14 14 14
16 -7 21 -15 4 -18 8 -9 14 19 11 20 39 1 40 -11 0 -12 2 -4 6 18 7 15 20 -11
43 -16 16 -17 19 -4 15 18 -8 23 5 8 20 -6 6 -4 15 4 22 10 9 18 8 37 -8 48
-42 74 -50 156 -44 66 4 119 15 205 42 22 7 37 42 37 89 0 19 8 60 19 92 10
31 22 79 26 106 11 77 16 85 45 73 14 -5 35 -9 48 -8 13 2 30 -3 39 -11 13
-10 17 -10 20 0 3 6 9 12 15 12 6 0 19 10 29 22 11 11 19 17 19 12 0 -5 6 -2
13 7 7 9 21 18 32 20 13 3 21 14 23 32 2 15 7 27 12 27 5 0 10 15 12 33 2 17
8 32 13 32 6 0 24 5 40 11 17 6 55 19 85 29 30 10 65 25 77 33 36 23 62 90 70
182 l8 85 40 0 39 0 12 -78 c15 -94 46 -148 104 -177 21 -11 55 -20 74 -20 28
0 35 -4 40 -25 4 -14 14 -25 24 -26 9 0 12 -3 6 -5 -13 -6 9 -79 31 -104 7 -8
13 -19 12 -24 -1 -5 8 -15 21 -23 21 -15 22 -15 22 20 0 25 -5 37 -17 40 -13
3 -14 5 -3 6 12 1 14 16 12 84 -4 77 -2 86 21 113 36 43 49 98 45 198 l-3 89
-40 11 c-27 8 -41 18 -43 31 -7 45 -33 102 -47 102 -8 0 -13 -2 -10 -5 7 -7
-14 -42 -26 -42 -6 0 -7 5 -4 10 3 6 -1 17 -10 26 -13 14 -18 14 -33 2 -16
-12 -16 -11 0 14 15 22 15 27 3 32 -16 6 -24 -4 -30 -35 -3 -12 -11 -29 -18
-38 -8 -9 -15 -23 -15 -31 -5 -59 -7 -62 -55 -81 -37 -15 -59 -17 -95 -11
l-46 7 -3 60 c-1 33 -7 61 -13 63 -5 2 -8 7 -6 10 2 4 -7 39 -20 77 -14 39
-22 59 -20 47 5 -28 5 -28 -28 20 -13 20 -20 38 -15 40 13 4 1 38 -13 38 -6 0
-8 -7 -5 -14 6 -16 -16 -12 -40 7 -9 6 -13 6 -13 -1z m462 -249 c9 -8 22 -12
27 -8 6 3 11 1 11 -6 0 -6 -8 -9 -20 -6 -11 3 -20 1 -20 -4 0 -5 7 -9 15 -9 8
0 15 -7 15 -16 0 -12 -5 -14 -17 -8 -10 4 -30 8 -45 8 -14 1 -24 4 -21 9 2 4
0 7 -5 7 -6 0 -12 7 -15 14 -4 11 -1 13 10 9 11 -4 14 -2 9 5 -20 32 20 35 56
5z m-1282 -27 c0 -2 -11 -6 -25 -8 -13 -3 -22 -1 -19 3 5 9 44 13 44 5z m-20
-56 c8 -5 11 -10 5 -10 -5 0 -17 5 -25 10 -8 5 -10 10 -5 10 6 0 17 -5 25 -10z
m1190 -97 c-7 -16 -15 -50 -16 -76 -2 -48 -9 -66 -19 -55 -3 3 -8 34 -12 70
-5 59 -3 68 17 88 30 30 49 13 30 -27z m-1800 -337 c0 -2 -7 -9 -15 -16 -12
-10 -15 -10 -15 4 0 9 7 16 15 16 8 0 15 -2 15 -4z m-310 -405 c0 -5 -7 -12
-16 -15 -14 -5 -15 -4 -4 9 14 17 20 19 20 6z m846 -41 c0 -12 -4 -16 -9 -11
-5 5 -6 14 -3 20 10 15 12 14 12 -9z"/>
<path d="M1794 2185 c8 -8 18 -15 22 -15 3 0 1 7 -6 15 -7 8 -17 15 -22 15 -5
0 -3 -7 6 -15z"/>
<path d="M1365 2130 c3 -5 10 -10 16 -10 5 0 9 5 9 10 0 6 -7 10 -16 10 -8 0
-12 -4 -9 -10z"/>
<path d="M1258 2103 c6 -2 18 -2 25 0 6 3 1 5 -13 5 -14 0 -19 -2 -12 -5z"/>
<path d="M1325 2050 c-19 -8 -19 -9 2 -9 12 -1 25 4 28 9 7 12 -2 12 -30 0z"/>
<path d="M1300 2010 c0 -5 5 -10 11 -10 5 0 7 5 4 10 -3 6 -8 10 -11 10 -2 0
-4 -4 -4 -10z"/>
<path d="M570 1710 c0 -5 7 -7 15 -4 8 4 15 8 15 10 0 2 -7 4 -15 4 -8 0 -15
-4 -15 -10z"/>
<path d="M530 1675 c-7 -8 -9 -15 -6 -15 4 0 14 7 22 15 9 8 11 15 6 15 -5 0
-15 -7 -22 -15z"/>
<path d="M2168 1412 c-6 -7 -17 -11 -24 -8 -17 7 -49 -30 -34 -39 6 -4 9 -13
6 -21 -3 -7 3 -33 14 -57 11 -24 17 -52 14 -64 -5 -16 3 -24 38 -42 48 -23 73
-27 63 -10 -4 6 -1 10 6 8 33 -4 48 2 43 16 -4 8 8 43 26 77 29 56 31 65 21
99 -13 42 -29 50 -109 52 -34 1 -58 -3 -64 -11z m2 -94 c0 -11 -28 -10 -35 1
-3 6 4 9 15 8 11 -1 20 -5 20 -9z"/>
<path d="M1482 775 c0 -16 4 -41 8 -55 l8 -25 0 25 c0 14 -4 39 -8 55 l-8 30
0 -30z"/>
<path d="M1497 630 c4 -19 13 -41 20 -48 7 -8 25 -29 38 -47 14 -18 36 -35 48
-38 12 -2 30 -8 40 -12 31 -13 18 10 -14 24 -17 8 -51 34 -75 59 -37 38 -42
48 -32 61 7 9 8 13 4 9 -5 -4 -15 0 -22 10 -12 15 -13 13 -7 -18z"/>
<path d="M700 435 c-10 -13 -9 -15 9 -15 11 0 21 4 21 9 0 18 -18 21 -30 6z"/>
<path d="M1145 400 c3 -5 8 -10 11 -10 2 0 4 5 4 10 0 6 -5 10 -11 10 -5 0 -7
-4 -4 -10z"/>
</g>
</svg>
